<svg xmlns="http://www.w3.org/2000/svg" xmlns:xlink="http://www.w3.org/1999/xlink" width="120" zoomAndPan="magnify" viewBox="0 0 90 30.000001" height="40" preserveAspectRatio="xMidYMid meet" version="1.0"><defs><g/></defs><g fill="#000000" fill-opacity="1"><g transform="translate(24.858041, 16.92969)"><g><path d="M 2.25 0.109375 C 1.894531 0.109375 1.585938 0.0664062 1.328125 -0.015625 C 1.066406 -0.0976562 0.847656 -0.195312 0.671875 -0.3125 C 0.460938 -0.4375 0.289062 -0.578125 0.15625 -0.734375 L 0.9375 -1.515625 C 1.019531 -1.398438 1.128906 -1.300781 1.265625 -1.21875 C 1.367188 -1.144531 1.5 -1.078125 1.65625 -1.015625 C 1.820312 -0.960938 2.003906 -0.9375 2.203125 -0.9375 C 2.515625 -0.9375 2.738281 -0.992188 2.875 -1.109375 C 3.019531 -1.222656 3.09375 -1.367188 3.09375 -1.546875 C 3.09375 -1.703125 3.023438 -1.820312 2.890625 -1.90625 C 2.765625 -2 2.597656 -2.082031 2.390625 -2.15625 C 2.191406 -2.226562 1.972656 -2.300781 1.734375 -2.375 C 1.503906 -2.457031 1.289062 -2.5625 1.09375 -2.6875 C 0.894531 -2.820312 0.726562 -2.988281 0.59375 -3.1875 C 0.457031 -3.382812 0.390625 -3.640625 0.390625 -3.953125 C 0.390625 -4.160156 0.429688 -4.359375 0.515625 -4.546875 C 0.609375 -4.742188 0.738281 -4.914062 0.90625 -5.0625 C 1.070312 -5.207031 1.28125 -5.320312 1.53125 -5.40625 C 1.78125 -5.5 2.054688 -5.546875 2.359375 -5.546875 C 2.660156 -5.546875 2.925781 -5.503906 3.15625 -5.421875 C 3.382812 -5.347656 3.578125 -5.265625 3.734375 -5.171875 C 3.898438 -5.054688 4.050781 -4.9375 4.1875 -4.8125 L 3.40625 -4.03125 C 3.320312 -4.113281 3.234375 -4.191406 3.140625 -4.265625 C 3.046875 -4.316406 2.9375 -4.367188 2.8125 -4.421875 C 2.695312 -4.472656 2.5625 -4.5 2.40625 -4.5 C 2.101562 -4.5 1.890625 -4.445312 1.765625 -4.34375 C 1.648438 -4.238281 1.59375 -4.109375 1.59375 -3.953125 C 1.59375 -3.796875 1.65625 -3.671875 1.78125 -3.578125 C 1.914062 -3.492188 2.082031 -3.414062 2.28125 -3.34375 C 2.488281 -3.269531 2.707031 -3.191406 2.9375 -3.109375 C 3.175781 -3.035156 3.394531 -2.9375 3.59375 -2.8125 C 3.789062 -2.6875 3.957031 -2.519531 4.09375 -2.3125 C 4.226562 -2.113281 4.296875 -1.859375 4.296875 -1.546875 C 4.296875 -1.328125 4.25 -1.113281 4.15625 -0.90625 C 4.0625 -0.707031 3.925781 -0.53125 3.75 -0.375 C 3.570312 -0.226562 3.359375 -0.109375 3.109375 -0.015625 C 2.859375 0.0664062 2.570312 0.109375 2.25 0.109375 Z M 2.25 0.109375 "/></g></g></g><g fill="#000000" fill-opacity="1"><g transform="translate(29.006473, 16.92969)"><g><path d="M 0.546875 -5.421875 L 1.59375 -5.421875 L 1.59375 -3.25 L 1.625 -3.25 C 1.707031 -3.363281 1.804688 -3.46875 1.921875 -3.5625 C 2.003906 -3.644531 2.113281 -3.71875 2.25 -3.78125 C 2.394531 -3.84375 2.5625 -3.875 2.75 -3.875 C 2.9375 -3.875 3.113281 -3.835938 3.28125 -3.765625 C 3.457031 -3.691406 3.609375 -3.582031 3.734375 -3.4375 C 3.859375 -3.300781 3.957031 -3.132812 4.03125 -2.9375 C 4.101562 -2.75 4.140625 -2.53125 4.140625 -2.28125 L 4.140625 0 L 3.09375 0 L 3.09375 -2.125 C 3.09375 -2.363281 3.03125 -2.546875 2.90625 -2.671875 C 2.789062 -2.804688 2.625 -2.875 2.40625 -2.875 C 2.164062 -2.875 1.96875 -2.789062 1.8125 -2.625 C 1.664062 -2.46875 1.59375 -2.265625 1.59375 -2.015625 L 1.59375 0 L 0.546875 0 Z M 0.546875 -5.421875 "/></g></g></g><g fill="#000000" fill-opacity="1"><g transform="translate(33.271217, 16.92969)"><g><path d="M 2.28125 0.078125 C 2.007812 0.078125 1.75 0.0234375 1.5 -0.078125 C 1.25 -0.179688 1.03125 -0.320312 0.84375 -0.5 C 0.664062 -0.6875 0.523438 -0.894531 0.421875 -1.125 C 0.316406 -1.363281 0.265625 -1.625 0.265625 -1.90625 C 0.265625 -2.164062 0.316406 -2.414062 0.421875 -2.65625 C 0.523438 -2.894531 0.664062 -3.101562 0.84375 -3.28125 C 1.03125 -3.46875 1.25 -3.613281 1.5 -3.71875 C 1.75 -3.820312 2.007812 -3.875 2.28125 -3.875 C 2.5625 -3.875 2.820312 -3.820312 3.0625 -3.71875 C 3.3125 -3.613281 3.523438 -3.46875 3.703125 -3.28125 C 3.890625 -3.101562 4.035156 -2.894531 4.140625 -2.65625 C 4.242188 -2.414062 4.296875 -2.164062 4.296875 -1.90625 C 4.296875 -1.625 4.242188 -1.363281 4.140625 -1.125 C 4.035156 -0.894531 3.890625 -0.6875 3.703125 -0.5 C 3.523438 -0.320312 3.3125 -0.179688 3.0625 -0.078125 C 2.820312 0.0234375 2.5625 0.078125 2.28125 0.078125 Z M 2.28125 -0.890625 C 2.414062 -0.890625 2.539062 -0.914062 2.65625 -0.96875 C 2.78125 -1.019531 2.882812 -1.085938 2.96875 -1.171875 C 3.0625 -1.265625 3.128906 -1.375 3.171875 -1.5 C 3.222656 -1.625 3.25 -1.757812 3.25 -1.90625 C 3.25 -2.039062 3.222656 -2.171875 3.171875 -2.296875 C 3.128906 -2.421875 3.0625 -2.523438 2.96875 -2.609375 C 2.882812 -2.703125 2.78125 -2.773438 2.65625 -2.828125 C 2.539062 -2.878906 2.414062 -2.90625 2.28125 -2.90625 C 2.144531 -2.90625 2.019531 -2.878906 1.90625 -2.828125 C 1.789062 -2.773438 1.6875 -2.703125 1.59375 -2.609375 C 1.507812 -2.523438 1.441406 -2.421875 1.390625 -2.296875 C 1.335938 -2.171875 1.3125 -2.039062 1.3125 -1.90625 C 1.3125 -1.757812 1.335938 -1.625 1.390625 -1.5 C 1.441406 -1.375 1.507812 -1.265625 1.59375 -1.171875 C 1.6875 -1.085938 1.789062 -1.019531 1.90625 -0.96875 C 2.019531 -0.914062 2.144531 -0.890625 2.28125 -0.890625 Z M 2.28125 -0.890625 "/></g></g></g><g fill="#000000" fill-opacity="1"><g transform="translate(37.45842, 16.92969)"><g><path d="M 0.5 -3.796875 L 1.546875 -3.796875 L 1.546875 -3.25 L 1.59375 -3.25 C 1.664062 -3.363281 1.765625 -3.46875 1.890625 -3.5625 C 1.984375 -3.644531 2.101562 -3.71875 2.25 -3.78125 C 2.40625 -3.84375 2.585938 -3.875 2.796875 -3.875 C 3.015625 -3.875 3.226562 -3.820312 3.4375 -3.71875 C 3.644531 -3.625 3.828125 -3.488281 3.984375 -3.3125 C 4.140625 -3.144531 4.265625 -2.9375 4.359375 -2.6875 C 4.453125 -2.445312 4.5 -2.1875 4.5 -1.90625 C 4.5 -1.613281 4.453125 -1.34375 4.359375 -1.09375 C 4.265625 -0.851562 4.140625 -0.644531 3.984375 -0.46875 C 3.828125 -0.289062 3.644531 -0.15625 3.4375 -0.0625 C 3.226562 0.03125 3.015625 0.078125 2.796875 0.078125 C 2.585938 0.078125 2.40625 0.046875 2.25 -0.015625 C 2.101562 -0.078125 1.984375 -0.148438 1.890625 -0.234375 C 1.765625 -0.328125 1.664062 -0.429688 1.59375 -0.546875 L 1.546875 -0.546875 L 1.546875 1.625 L 0.5 1.625 Z M 2.484375 -0.890625 C 2.617188 -0.890625 2.742188 -0.914062 2.859375 -0.96875 C 2.972656 -1.019531 3.070312 -1.085938 3.15625 -1.171875 C 3.25 -1.265625 3.320312 -1.375 3.375 -1.5 C 3.425781 -1.625 3.453125 -1.757812 3.453125 -1.90625 C 3.453125 -2.039062 3.425781 -2.171875 3.375 -2.296875 C 3.320312 -2.421875 3.25 -2.523438 3.15625 -2.609375 C 3.070312 -2.703125 2.972656 -2.773438 2.859375 -2.828125 C 2.742188 -2.878906 2.617188 -2.90625 2.484375 -2.90625 C 2.347656 -2.90625 2.21875 -2.878906 2.09375 -2.828125 C 1.976562 -2.773438 1.875 -2.703125 1.78125 -2.609375 C 1.695312 -2.523438 1.628906 -2.421875 1.578125 -2.296875 C 1.535156 -2.171875 1.515625 -2.039062 1.515625 -1.90625 C 1.515625 -1.757812 1.535156 -1.625 1.578125 -1.5 C 1.628906 -1.375 1.695312 -1.265625 1.78125 -1.171875 C 1.875 -1.085938 1.976562 -1.019531 2.09375 -0.96875 C 2.21875 -0.914062 2.347656 -0.890625 2.484375 -0.890625 Z M 2.484375 -0.890625 "/></g></g></g><g fill="#000000" fill-opacity="1"><g transform="translate(41.839476, 16.92969)"><g><path d="M 1.703125 -4.34375 L 0.15625 -4.34375 L 0.15625 -5.421875 L 4.421875 -5.421875 L 4.421875 -4.34375 L 2.875 -4.34375 L 2.875 0 L 1.703125 0 Z M 1.703125 -4.34375 "/></g></g></g><g fill="#000000" fill-opacity="1"><g transform="translate(46.026678, 16.92969)"><g><path d="M 0.5 -3.796875 L 1.546875 -3.796875 L 1.546875 -3.25 L 1.59375 -3.25 C 1.675781 -3.363281 1.769531 -3.46875 1.875 -3.5625 C 1.96875 -3.644531 2.082031 -3.71875 2.21875 -3.78125 C 2.363281 -3.84375 2.53125 -3.875 2.71875 -3.875 L 2.796875 -3.875 L 2.796875 -2.75 C 2.765625 -2.757812 2.734375 -2.765625 2.703125 -2.765625 C 2.671875 -2.773438 2.632812 -2.78125 2.59375 -2.78125 C 2.550781 -2.789062 2.5 -2.796875 2.4375 -2.796875 C 2.1875 -2.796875 1.972656 -2.703125 1.796875 -2.515625 C 1.628906 -2.335938 1.546875 -2.09375 1.546875 -1.78125 L 1.546875 0 L 0.5 0 Z M 0.5 -3.796875 "/></g></g></g><g fill="#000000" fill-opacity="1"><g transform="translate(48.58552, 16.92969)"><g><path d="M 2.28125 0.078125 C 2.007812 0.078125 1.75 0.0234375 1.5 -0.078125 C 1.25 -0.179688 1.03125 -0.320312 0.84375 -0.5 C 0.664062 -0.6875 0.523438 -0.894531 0.421875 -1.125 C 0.316406 -1.363281 0.265625 -1.625 0.265625 -1.90625 C 0.265625 -2.164062 0.316406 -2.414062 0.421875 -2.65625 C 0.523438 -2.894531 0.664062 -3.101562 0.84375 -3.28125 C 1.03125 -3.46875 1.242188 -3.613281 1.484375 -3.71875 C 1.722656 -3.820312 1.976562 -3.875 2.25 -3.875 C 2.507812 -3.875 2.753906 -3.820312 2.984375 -3.71875 C 3.210938 -3.625 3.410156 -3.488281 3.578125 -3.3125 C 3.753906 -3.144531 3.890625 -2.945312 3.984375 -2.71875 C 4.085938 -2.488281 4.140625 -2.238281 4.140625 -1.96875 C 4.140625 -1.90625 4.132812 -1.84375 4.125 -1.78125 C 4.125 -1.726562 4.125 -1.679688 4.125 -1.640625 C 4.113281 -1.585938 4.109375 -1.546875 4.109375 -1.515625 L 1.359375 -1.515625 C 1.410156 -1.335938 1.519531 -1.179688 1.6875 -1.046875 C 1.851562 -0.921875 2.078125 -0.859375 2.359375 -0.859375 C 2.523438 -0.859375 2.671875 -0.875 2.796875 -0.90625 C 2.921875 -0.945312 3.023438 -1 3.109375 -1.0625 C 3.210938 -1.125 3.300781 -1.195312 3.375 -1.28125 L 3.90625 -0.546875 C 3.800781 -0.429688 3.664062 -0.328125 3.5 -0.234375 C 3.351562 -0.148438 3.179688 -0.078125 2.984375 -0.015625 C 2.785156 0.046875 2.550781 0.078125 2.28125 0.078125 Z M 3.0625 -2.28125 C 3 -2.457031 2.894531 -2.609375 2.75 -2.734375 C 2.601562 -2.867188 2.421875 -2.9375 2.203125 -2.9375 C 1.992188 -2.9375 1.8125 -2.867188 1.65625 -2.734375 C 1.507812 -2.609375 1.410156 -2.457031 1.359375 -2.28125 Z M 3.0625 -2.28125 "/></g></g></g><g fill="#000000" fill-opacity="1"><g transform="translate(52.61764, 16.92969)"><g><path d="M 0.5 -3.796875 L 1.546875 -3.796875 L 1.546875 -3.25 L 1.59375 -3.25 C 1.675781 -3.363281 1.769531 -3.46875 1.875 -3.5625 C 1.96875 -3.644531 2.082031 -3.71875 2.21875 -3.78125 C 2.363281 -3.84375 2.53125 -3.875 2.71875 -3.875 C 2.90625 -3.875 3.082031 -3.835938 3.25 -3.765625 C 3.425781 -3.691406 3.578125 -3.582031 3.703125 -3.4375 C 3.828125 -3.300781 3.925781 -3.132812 4 -2.9375 C 4.070312 -2.75 4.109375 -2.53125 4.109375 -2.28125 L 4.109375 0 L 3.0625 0 L 3.0625 -2.125 C 3.0625 -2.363281 3 -2.546875 2.875 -2.671875 C 2.75 -2.804688 2.578125 -2.875 2.359375 -2.875 C 2.128906 -2.875 1.9375 -2.789062 1.78125 -2.625 C 1.625 -2.46875 1.546875 -2.265625 1.546875 -2.015625 L 1.546875 0 L 0.5 0 Z M 0.5 -3.796875 "/></g></g></g><g fill="#000000" fill-opacity="1"><g transform="translate(56.843612, 16.92969)"><g><path d="M 1.96875 0.078125 C 1.75 0.078125 1.535156 0.03125 1.328125 -0.0625 C 1.117188 -0.15625 0.9375 -0.289062 0.78125 -0.46875 C 0.625 -0.644531 0.5 -0.851562 0.40625 -1.09375 C 0.3125 -1.34375 0.265625 -1.613281 0.265625 -1.90625 C 0.265625 -2.1875 0.3125 -2.445312 0.40625 -2.6875 C 0.5 -2.9375 0.625 -3.144531 0.78125 -3.3125 C 0.9375 -3.488281 1.117188 -3.625 1.328125 -3.71875 C 1.535156 -3.820312 1.75 -3.875 1.96875 -3.875 C 2.175781 -3.875 2.351562 -3.84375 2.5 -3.78125 C 2.65625 -3.71875 2.785156 -3.644531 2.890625 -3.5625 C 3.003906 -3.46875 3.097656 -3.363281 3.171875 -3.25 L 3.21875 -3.25 L 3.21875 -5.421875 L 4.265625 -5.421875 L 4.265625 0 L 3.21875 0 L 3.21875 -0.546875 L 3.171875 -0.546875 C 3.097656 -0.429688 3.003906 -0.328125 2.890625 -0.234375 C 2.785156 -0.148438 2.65625 -0.078125 2.5 -0.015625 C 2.351562 0.046875 2.175781 0.078125 1.96875 0.078125 Z M 2.28125 -0.890625 C 2.414062 -0.890625 2.539062 -0.914062 2.65625 -0.96875 C 2.78125 -1.019531 2.882812 -1.085938 2.96875 -1.171875 C 3.0625 -1.265625 3.128906 -1.375 3.171875 -1.5 C 3.222656 -1.625 3.25 -1.757812 3.25 -1.90625 C 3.25 -2.039062 3.222656 -2.171875 3.171875 -2.296875 C 3.128906 -2.421875 3.0625 -2.523438 2.96875 -2.609375 C 2.882812 -2.703125 2.78125 -2.773438 2.65625 -2.828125 C 2.539062 -2.878906 2.414062 -2.90625 2.28125 -2.90625 C 2.144531 -2.90625 2.019531 -2.878906 1.90625 -2.828125 C 1.789062 -2.773438 1.6875 -2.703125 1.59375 -2.609375 C 1.507812 -2.523438 1.441406 -2.421875 1.390625 -2.296875 C 1.335938 -2.171875 1.3125 -2.039062 1.3125 -1.90625 C 1.3125 -1.757812 1.335938 -1.625 1.390625 -1.5 C 1.441406 -1.375 1.507812 -1.265625 1.59375 -1.171875 C 1.6875 -1.085938 1.789062 -1.019531 1.90625 -0.96875 C 2.019531 -0.914062 2.144531 -0.890625 2.28125 -0.890625 Z M 2.28125 -0.890625 "/></g></g></g><g fill="#000000" fill-opacity="1"><g transform="translate(61.263438, 16.92969)"><g><path d="M 0.265625 -0.96875 L 2.125 -2.828125 L 0.34375 -2.828125 L 0.34375 -3.796875 L 3.53125 -3.796875 L 3.53125 -2.828125 L 1.671875 -0.96875 L 3.609375 -0.96875 L 3.609375 0 L 0.265625 0 Z M 0.265625 -0.96875 "/></g></g></g></svg>